<svg width="72" height="72" viewBox="0 0 72 72" fill="none" xmlns="http://www.w3.org/2000/svg">
<g clip-path="url(#clip0_372_37600)">
<path d="M36.6167 30.7909C35.9481 29.0936 34.6955 27.6908 33.0845 26.835C31.4734 25.9792 29.6098 25.7265 27.8291 26.1226C26.6626 26.3948 25.456 26.4508 24.2693 26.2878C21.6219 25.8849 19.2408 24.4527 17.6439 22.303C16.0471 20.1533 15.3639 17.46 15.7428 14.809C15.9058 13.4948 16.3274 12.2258 16.9832 11.0752C17.639 9.9247 18.5161 8.91535 19.5638 8.10538C20.6116 7.29542 21.8093 6.70086 23.0879 6.35599C24.3666 6.01112 25.7008 5.92275 27.0138 6.096C29.6649 6.49105 32.0513 7.92124 33.6496 10.073C35.248 12.2248 35.9279 14.9225 35.5403 17.5748C35.5403 17.5748 35.5403 17.5748 35.5403 17.6068C35.2837 19.4199 35.6704 21.2657 36.6332 22.8234C37.5961 24.381 39.0742 25.5522 40.8107 26.1333C41.5846 26.3889 42.2441 26.9085 42.6737 27.6011C43.1033 28.2937 43.2757 29.1154 43.1608 29.9223C43.0703 30.6762 42.7308 31.3783 42.196 31.9174C41.6613 32.4565 40.9619 32.8018 40.2088 32.8985C39.4556 32.9951 38.6917 32.8377 38.0382 32.4511C37.3846 32.0645 36.8788 31.4709 36.6008 30.7643L36.6167 30.7909ZM17.9224 42.2004C18.8728 42.3452 19.8447 42.2043 20.7148 41.7955C21.5849 41.3867 22.3139 40.7285 22.8091 39.9045C23.3044 39.0805 23.5435 38.128 23.4963 37.1678C23.449 36.2076 23.1174 35.2831 22.5436 34.5118C21.9698 33.7405 21.1797 33.1571 20.2736 32.8358C19.3676 32.5144 18.3864 32.4696 17.4549 32.7071C16.5233 32.9445 15.6833 33.4535 15.0417 34.1694C14.4 34.8852 13.9855 35.7756 13.851 36.7275C13.6693 37.9925 13.9955 39.278 14.7583 40.3034C15.5211 41.3288 16.6585 42.0107 17.9224 42.2004ZM59.6863 34.4307C57.5314 33.7546 55.2134 33.8098 53.0931 34.5876C50.9728 35.3653 49.169 36.8221 47.9623 38.7312C47.5452 39.3856 46.9618 39.9174 46.2717 40.2723C45.5816 40.6271 44.8097 40.7923 44.0348 40.7509C42.2595 40.6699 40.5082 41.1851 39.0596 42.2145C37.611 43.244 36.5485 44.7285 36.0412 46.4317C35.4121 48.4678 35.6074 50.6695 36.5851 52.5631C37.5628 54.4567 39.2447 55.8908 41.269 56.557C42.5367 56.9613 43.8864 57.037 45.1914 56.777C46.4963 56.5169 47.7139 55.9296 48.7297 55.0702C49.3197 54.5707 50.0322 54.2377 50.7939 54.1056C51.5555 53.9735 52.3386 54.0471 53.0623 54.3188C53.2275 54.3774 53.382 54.4467 53.5525 54.4999C54.8575 54.9062 56.2301 55.0488 57.5907 54.9195C58.9513 54.7903 60.2726 54.3917 61.4776 53.747C62.6827 53.1023 63.7476 52.2244 64.6102 51.1643C65.4728 50.1042 66.1159 48.8831 66.5022 47.5722C67.3181 44.9255 67.0607 42.0641 65.7856 39.6055C64.5104 37.1469 62.3197 35.2883 59.6863 34.4307ZM22.2549 51.1053C21.7226 50.9063 21.1537 50.8245 20.5869 50.8655C18.3718 51.0243 16.1488 50.695 14.0748 49.901L14.0162 49.8743C13.0022 49.4984 11.9234 49.3283 10.843 49.3738C9.76248 49.4193 8.7019 49.6796 7.72311 50.1395C6.74433 50.5994 5.86695 51.2496 5.1422 52.0523C4.41744 52.8549 3.85983 53.7939 3.50191 54.8144C2.75438 56.8734 2.84477 59.1436 3.75363 61.1367C4.66249 63.1299 6.31724 64.6867 8.36202 65.4725C9.96495 66.0673 11.7152 66.1385 13.3612 65.6761C15.0071 65.2136 16.4641 64.2412 17.5227 62.8986C18.9186 61.164 20.6728 59.7515 22.6652 58.7579C23.6083 58.285 24.332 57.4658 24.685 56.4717C25.0694 55.4375 25.0298 54.2933 24.5747 53.2882C24.1195 52.2832 23.2858 51.4986 22.2549 51.1053Z" fill="url(#paint0_linear_372_37600)"/>
</g>
<defs>
<linearGradient id="paint0_linear_372_37600" x1="6.7633" y1="64.9289" x2="49.2946" y2="22.4029" gradientUnits="userSpaceOnUse">
<stop stop-color="#FB00A8"/>
<stop offset="1" stop-color="#7C1CFE"/>
</linearGradient>
<clipPath id="clip0_372_37600">
<rect width="63.9488" height="60" fill="white" transform="translate(3 6)"/>
</clipPath>
</defs>
</svg>